<svg xmlns:dc="http://purl.org/dc/elements/1.1/" xmlns:cc="http://creativecommons.org/ns#" xmlns:rdf="http://www.w3.org/1999/02/22-rdf-syntax-ns#" xmlns:svg="http://www.w3.org/2000/svg" xmlns="http://www.w3.org/2000/svg" xmlns:sodipodi="http://sodipodi.sourceforge.net/DTD/sodipodi-0.dtd" xmlns:inkscape="http://www.inkscape.org/namespaces/inkscape" viewBox="0 0 408.62262 57.642532" version="1.1" id="svg877" inkscape:version="0.92.3 (2405546, 2018-03-11)" sodipodi:docname="TralahTek.svg" viewport="0 0 5120px 715px">
  <defs id="defs871"/>
  <sodipodi:namedview id="base" pagecolor="#ffffff" bordercolor="#666666" borderopacity="1.0" inkscape:pageopacity="0.0" inkscape:pageshadow="2" inkscape:zoom="0.49497475" inkscape:cx="761.90446" inkscape:cy="108.89963" inkscape:document-units="mm" inkscape:current-layer="layer1" showgrid="true" inkscape:window-width="1294" inkscape:window-height="703" inkscape:window-x="36" inkscape:window-y="0" inkscape:window-maximized="1" inkscape:pagecheckerboard="true">
    <inkscape:grid type="xygrid" id="grid7688"/>
  </sodipodi:namedview>
  <metadata id="metadata874">
    <rdf:RDF>
      <cc:Work rdf:about="">
        <dc:format>image/svg+xml</dc:format>
        <dc:type rdf:resource="http://purl.org/dc/dcmitype/StillImage"/>
        <dc:title/>
      </cc:Work>
    </rdf:RDF>
  </metadata>
  <g inkscape:label="Layer 1" inkscape:groupmode="layer" id="layer1" transform="translate(155.17442,-99.979332)">
    <g transform="matrix(1.022704,0,0,0.37508218,-280.14222,-8.1720372)" id="g1236">
      <path inkscape:connector-curvature="0" transform="matrix(1.6672002,0,0,8.2539239,-257.21885,-1535.8325)" style="fill:#233f94" d="m 222.346,200.026 v -19.241 l -9.566,-0.059 v -5.205 h 25.511 v 5.205 h -9.569 v 19.3 z" id="polygon210"/>
      <path inkscape:connector-curvature="0" transform="matrix(1.6672002,0,0,8.2539239,-257.21885,-1535.8325)" style="fill:#233f94" d="m 377.193,180.785 -9.566,-0.059 v -5.205 h 25.509 v 5.205 h -9.569 v 19.3 h -6.374" id="polyline212"/>
      <path d="M 142.85251,115.16688 V -44.142103 c 0,0 0,-34.600449 5.31504,-42.95342 h 27.41877 v 45.726738 h -22.66225 l 0.28176,156.535665 z" id="path214" inkscape:connector-curvature="0" style="fill:#233f94;stroke-width:3.7095747"/>
      <path d="m 180.62627,-44.133849 v -42.95342 h 35.81479 c 0,0 7.55575,4.176485 5.59179,42.95342 V 115.17514 h -36.92848 c 0,0 -7.83918,1.41142 -6.15364,-65.139971 l 29.65949,-92.757597 z" id="path216" inkscape:connector-curvature="0" style="fill:#233f94;stroke-width:3.7095747"/>
      <path inkscape:connector-curvature="0" transform="matrix(1.6672002,0,0,8.2539239,-257.21885,-1535.8325)" style="fill:#ffffff" d="m 269.952,194.766 v -1.68 l 10.629,-5.306 h 1.117 v 6.986 z" id="polygon218"/>
      <path d="m 263.07265,-44.133849 v -42.95342 h 35.81646 c 0,0 7.55075,4.176485 5.60013,42.95342 V 115.17514 h -36.93849 c 0,0 -7.83084,1.41142 -6.15697,-65.139971 l 29.66616,-92.757597 z" id="path220" inkscape:connector-curvature="0" style="fill:#233f94;stroke-width:3.7095747"/>
      <path inkscape:connector-curvature="0" transform="matrix(1.6672002,0,0,8.2539239,-257.21885,-1535.8325)" style="fill:#ffffff" d="m 319.403,194.766 v -1.68 l 10.633,-5.306 h 1.115 v 6.986 z" id="polygon222"/>
      <path d="m 225.67735,-164.62463 h 11.74709 V 71.751242 h 20.70496 v 43.423898 h -25.18306 c 0,0 -7.26732,15.25325 -7.26732,-31.86015 v -247.93962 z" id="path224" inkscape:connector-curvature="0" style="fill:#233f94;stroke-width:3.7095747"/>
      <path d="m 308.77895,117.53576 v -282.16039 h 11.46867 v 77.537361 h 19.30451 c 0,0 11.75543,21.757343 13.99448,63.530452 V 117.53576 H 342.90487 V -12.248941 l -5.59346,-27.708423 H 320.52437 V 117.53576 Z" id="path226" inkscape:connector-curvature="0" style="fill:#233f94;stroke-width:3.7095747"/>
      <path d="M 442.61177,117.53576 H 416.1233 c 0,0 -10.81846,-7.47806 -14.17954,-73.237069 v -67.855508 c 0,0 3.36108,-55.185735 14.92311,-63.530452 h 14.92644 c 0,0 11.93382,19.429737 13.42597,54.508913 v 62.787599 h -30.58479 c 0,0 0,40.650576 5.96691,41.541999 h 22.00871 v 45.784518 z" id="path228" inkscape:connector-curvature="0" style="fill:#233f94;stroke-width:3.7095747"/>
      <path d="m 413.88091,-19.017159 h 17.1705 c 0,0 -5.22834,-50.662585 -17.1705,0" id="path230" inkscape:connector-curvature="0" style="fill:#ffffff;stroke-width:3.7095747"/>
      <path inkscape:connector-curvature="0" transform="matrix(1.6672002,0,0,8.2539239,-257.21885,-1535.8325)" style="fill:#233f94" d="m 424.463,166.128 v 33.898 h 6.263 V 189.51 h 5.149 l 7.832,10.803 8.727,-0.287 -9.619,-12.246 7.607,-10.801 0.445,-2.684 -6.937,0.223 -7.608,9.251 h -5.144 v -17.641 z" id="polygon232"/>
    </g>
    <path style="fill:#0055c2;stroke:#000000;stroke-width:0.765;stroke-linecap:butt;stroke-linejoin:miter;stroke-opacity:1;fill-opacity:1;stroke-miterlimit:4;stroke-dasharray:none" d="m -155.17442,115.28853 h 42.33333 v 10.58333 h -15.875 v 31.75 h -10.58333 v -31.75 h -15.875 z" id="path7690" inkscape:connector-curvature="0"/>
    <path style="fill:#0055c2;stroke:#000000;stroke-width:0.765;stroke-linecap:butt;stroke-linejoin:miter;stroke-opacity:1;fill-opacity:1;stroke-miterlimit:4;stroke-dasharray:none" d="m -75.799421,115.28853 v 10.58333 h -21.166666 v 31.75 H -107.54942 V 120.5802 l 5.29167,-5.29167 z" id="path7692" inkscape:connector-curvature="0"/>
    <path style="fill:#0055c2;stroke:#000000;stroke-width:2.89133862;stroke-linecap:butt;stroke-linejoin:miter;stroke-opacity:1;fill-opacity:1;stroke-miterlimit:4;stroke-dasharray:none" d="m 320,57.861328 v 40 H 420 L 320,157.86133 v 40 l 20,20 H 480 V 77.861328 l -20,-20 z m 120,80.000002 v 40 h -80 z" transform="matrix(0.26458333,0,0,0.26458333,-155.17442,99.979332)" id="path7694" inkscape:connector-curvature="0"/>
    <path style="fill:#0055c2;stroke:#000000;stroke-width:0.765;stroke-linecap:butt;stroke-linejoin:miter;stroke-opacity:1;fill-opacity:1;stroke-miterlimit:4;stroke-dasharray:none" d="m -22.882755,99.413531 h 10.583333 V 147.03853 H 8.8672446 v 10.58333 H -17.591088 l -5.291667,-5.29166 z" id="path7696" inkscape:connector-curvature="0"/>
    <path style="fill:#0055c2;stroke:#000000;stroke-width:2.89133862;stroke-linecap:butt;stroke-linejoin:miter;stroke-opacity:1;fill-opacity:1;stroke-miterlimit:4;stroke-dasharray:none" d="m 640,57.861328 v 40 H 740 L 640,157.86133 v 40 l 20,20 H 800 V 77.861328 l -20,-20 z m 120,80.000002 v 40 h -80 z" transform="matrix(0.26458333,0,0,0.26458333,-155.17442,99.979332)" id="path7698" inkscape:connector-curvature="0"/>
    <path style="fill:#0055c2;stroke:#000000;stroke-width:0.765;stroke-linecap:butt;stroke-linejoin:miter;stroke-opacity:1;fill-opacity:1;stroke-miterlimit:4;stroke-dasharray:none" d="m 61.783911,99.413531 v 58.208329 h 10.583333 v -31.75 h 15.875 l 5.291666,5.29167 v 26.45833 h 10.58333 v -31.75 L 93.53391,115.28853 H 72.367244 V 99.413531 Z" id="path7700" inkscape:connector-curvature="0"/>
    <path style="fill:#ffffdf;stroke:#000000;stroke-width:0.765;stroke-linecap:butt;stroke-linejoin:miter;stroke-opacity:1;fill-opacity:1;stroke-miterlimit:4;stroke-dasharray:none" d="m 109.40891,115.28853 v 10.58333 h 15.875 v 31.75 h 10.58333 v -31.75 h 15.875 v -10.58333 z" id="path7702" inkscape:connector-curvature="0"/>
    <path style="fill:#ffffdf;stroke:#000000;stroke-width:2.89133862;stroke-linecap:butt;stroke-linejoin:miter;stroke-opacity:1;fill-opacity:1;stroke-miterlimit:4;stroke-dasharray:none" d="m 1220,57.861328 -40,40 v 80.000002 l 40,40 h 120 v -40 h -100 l -20,-20 h 120 V 97.861328 l -40,-40 z m 20,40 h 40 l 20,20.000002 h -80 z" transform="matrix(0.26458333,0,0,0.26458333,-155.17442,99.979332)" id="path7704" inkscape:connector-curvature="0"/>
    <path style="fill:#ffffdf;stroke:#000000;stroke-width:0.765;stroke-linecap:butt;stroke-linejoin:miter;stroke-opacity:1;fill-opacity:1;stroke-miterlimit:4;stroke-dasharray:none" d="m 204.65891,99.413531 v 58.208329 h 10.58333 v -15.875 h 10.58334 l 10.58333,15.875 h 15.875 l -15.875,-21.16666 15.875,-21.16667 h -15.875 l -10.58333,15.875 H 215.24224 V 99.413531 Z" id="path7706" inkscape:connector-curvature="0" sodipodi:nodetypes="cccccccccccccc"/>
  </g>
</svg>